<svg width="36" height="36" viewBox="0 0 36 36" fill="none" xmlns="http://www.w3.org/2000/svg">
<path d="M18 34.1251C16.95 34.1251 15.885 33.72 15.09 32.925L12.525 30.3901C11.88 29.7601 11.04 29.4151 10.14 29.4151H9C5.895 29.4151 3.375 26.9101 3.375 23.8351V7.47009C3.375 4.39509 5.895 1.89014 9 1.89014H27C30.105 1.89014 32.625 4.39509 32.625 7.47009V23.8351C32.625 26.9101 30.105 29.4151 27 29.4151H25.86C24.96 29.4151 24.105 29.7601 23.475 30.3901L20.91 32.925C20.115 33.72 19.05 34.1251 18 34.1251ZM9 4.12512C7.14 4.12512 5.625 5.62508 5.625 7.45508V23.8201C5.625 25.6651 7.14 27.1501 9 27.1501H10.14C11.64 27.1501 13.05 27.735 14.115 28.785L16.68 31.3201C17.415 32.0401 18.6 32.0401 19.335 31.3201L21.9 28.785C22.965 27.735 24.375 27.1501 25.875 27.1501H27C28.86 27.1501 30.375 25.6501 30.375 23.8201V7.45508C30.375 5.61008 28.86 4.12512 27 4.12512H9Z" fill="#7B818E"/>
<path d="M15.5704 21.765H11.5503C10.8903 21.765 10.2753 21.4499 9.88534 20.9099C9.51034 20.3999 9.42033 19.77 9.60033 19.17C10.1253 17.565 11.4153 16.695 12.5553 15.915C13.7553 15.105 14.4303 14.595 14.4303 13.725C14.4303 12.945 13.8003 12.3149 13.0203 12.3149C12.2403 12.3149 11.6104 12.945 11.6104 13.725C11.6104 14.34 11.1004 14.85 10.4854 14.85C9.87035 14.85 9.36035 14.34 9.36035 13.725C9.36035 11.715 10.9953 10.0649 13.0203 10.0649C15.0453 10.0649 16.6803 11.7 16.6803 13.725C16.6803 15.84 15.0904 16.92 13.8154 17.79C13.0204 18.33 12.2703 18.84 11.8953 19.515H15.5553C16.1703 19.515 16.6803 20.025 16.6803 20.64C16.6803 21.255 16.1854 21.765 15.5704 21.765Z" fill="#7B818E"/>
<path d="M24.0598 21.7652C23.4448 21.7652 22.9348 21.2552 22.9348 20.6402V19.6051H19.9948C19.9948 19.6051 19.9948 19.6051 19.9798 19.6051C19.2448 19.6051 18.5698 19.2152 18.1948 18.5852C17.8198 17.9402 17.8198 17.1452 18.1948 16.5152C19.2148 14.7602 20.3998 12.7651 21.4798 11.0251C21.9598 10.2601 22.8748 9.91518 23.7298 10.1552C24.5848 10.4102 25.1848 11.1902 25.1698 12.0902V17.3701H25.4998C26.1148 17.3701 26.6248 17.8801 26.6248 18.4951C26.6248 19.1101 26.1148 19.6201 25.4998 19.6201H25.1848V20.6552C25.1848 21.2702 24.6898 21.7652 24.0598 21.7652ZM22.9348 12.9602C22.0498 14.4002 21.1348 15.9451 20.3098 17.3551H22.9348V12.9602Z" fill="#7B818E"/>
</svg>
