<svg width="36" height="36" viewBox="0 0 36 36" fill="none" xmlns="http://www.w3.org/2000/svg">
<path d="M18.0001 34.125C10.2001 34.125 3.87012 27.78 3.87012 19.995C3.87012 17.19 4.69512 14.475 6.25512 12.135C6.60012 11.625 7.30512 11.475 7.81512 11.82C8.32512 12.165 8.47512 12.87 8.13012 13.38C6.82512 15.33 6.13512 17.625 6.13512 19.98C6.13512 26.535 11.4601 31.86 18.0151 31.86C24.5701 31.86 29.8951 26.535 29.8951 19.98C29.8951 13.425 24.5551 8.09996 18.0001 8.09996C16.6201 8.09996 15.2701 8.29496 13.9951 8.68496C13.3951 8.86496 12.7651 8.53496 12.5851 7.93496C12.4051 7.33496 12.7351 6.70496 13.3351 6.52496C14.8351 6.07496 16.3951 5.83496 18.0001 5.83496C25.8001 5.83496 32.1301 12.18 32.1301 19.965C32.1301 27.75 25.8001 34.125 18.0001 34.125Z" fill="#7B818E"/>
<path d="M11.8051 9.10494C11.5501 9.10494 11.2801 9.01494 11.0701 8.83494C10.5901 8.41494 10.5451 7.70994 10.9501 7.24494L15.285 2.26494C15.6901 1.79994 16.4101 1.73994 16.8751 2.15994C17.3401 2.56494 17.3851 3.28494 16.9801 3.74994L12.6451 8.71494C12.4201 8.96994 12.1051 9.10494 11.8051 9.10494Z" fill="#7B818E"/>
<path d="M16.8601 12.7949C16.6351 12.7949 16.3951 12.7199 16.2001 12.5849L11.1301 8.87995C10.6351 8.51994 10.5301 7.81494 10.8901 7.31994C11.2501 6.80994 11.9551 6.70494 12.4651 7.06494L17.5201 10.7549C18.0151 11.1149 18.1351 11.8199 17.7601 12.3299C17.5501 12.6449 17.2051 12.7949 16.8601 12.7949Z" fill="#7B818E"/>
</svg>
